<?xml version="1.0" standalone="no"?>
<!DOCTYPE svg PUBLIC "-//W3C//DTD SVG 20010904//EN"
 "http://www.w3.org/TR/2001/REC-SVG-20010904/DTD/svg10.dtd">
<svg version="1.0" xmlns="http://www.w3.org/2000/svg"
 width="256.000000pt" height="256.000000pt" viewBox="0 0 256.000000 256.000000"
 preserveAspectRatio="xMidYMid meet">
<metadata>
Created by potrace 1.11, written by Peter Selinger 2001-2013
</metadata>
<g transform="translate(0.000000,256.000000) scale(0.100000,-0.100000)"
fill="#000000" stroke="none">
<path d="M0 1275 l0 -1071 264 0 c145 1 267 3 269 6 3 3 -112 5 -255 5 l-261
0 1 1050 c1 1197 0 1078 10 1071 4 -2 14 0 22 5 11 6 6 8 -17 7 l-33 -2 0
-1071z"/>
<path d="M90 2342 c0 -4 18 -6 40 -4 22 2 40 6 40 8 0 2 -18 4 -40 4 -22 0
-40 -3 -40 -8z"/>
<path d="M185 2340 c3 -5 12 -7 20 -3 21 7 19 13 -6 13 -11 0 -18 -4 -14 -10z"/>
<path d="M250 2342 c0 -4 17 -6 38 -4 58 5 62 10 10 11 -27 1 -48 -3 -48 -7z"/>
<path d="M350 2341 c0 -4 14 -7 32 -5 45 6 48 14 5 14 -20 0 -37 -4 -37 -9z"/>
<path d="M450 2342 c0 -4 21 -6 48 -4 75 5 82 10 15 11 -35 0 -63 -2 -63 -7z"/>
<path d="M585 2340 c3 -5 12 -7 20 -3 21 7 19 13 -6 13 -11 0 -18 -4 -14 -10z"/>
<path d="M650 2343 c0 -5 28 -7 62 -5 107 5 117 9 26 11 -49 0 -88 -2 -88 -6z"/>
<path d="M830 2341 c0 -4 14 -7 32 -5 45 6 48 14 5 14 -20 0 -37 -4 -37 -9z"/>
<path d="M930 2341 c0 -5 9 -7 20 -4 11 3 20 7 20 9 0 2 -9 4 -20 4 -11 0 -20
-4 -20 -9z"/>
<path d="M985 2340 c3 -5 12 -7 20 -3 21 7 19 13 -6 13 -11 0 -18 -4 -14 -10z"/>
<path d="M1050 2342 c0 -4 18 -6 40 -4 22 2 40 6 40 8 0 2 -18 4 -40 4 -22 0
-40 -3 -40 -8z"/>
<path d="M1145 2340 c3 -5 12 -7 20 -3 21 7 19 13 -6 13 -11 0 -18 -4 -14 -10z"/>
<path d="M1210 2342 c0 -4 17 -6 38 -4 58 5 62 10 10 11 -27 1 -48 -3 -48 -7z"/>
<path d="M1310 2341 c0 -4 14 -7 32 -5 45 6 48 14 5 14 -20 0 -37 -4 -37 -9z"/>
<path d="M1410 2342 c0 -4 21 -6 48 -4 75 5 82 10 15 11 -35 0 -63 -2 -63 -7z"/>
<path d="M1545 2340 c3 -5 12 -7 20 -3 21 7 19 13 -6 13 -11 0 -18 -4 -14 -10z"/>
<path d="M1610 2343 c0 -5 28 -7 62 -5 107 5 117 9 26 11 -49 0 -88 -2 -88 -6z"/>
<path d="M1790 2341 c0 -4 14 -7 32 -5 45 6 48 14 5 14 -20 0 -37 -4 -37 -9z"/>
<path d="M1890 2341 c0 -5 9 -7 20 -4 11 3 20 7 20 9 0 2 -9 4 -20 4 -11 0
-20 -4 -20 -9z"/>
<path d="M1945 2340 c3 -5 12 -7 20 -3 21 7 19 13 -6 13 -11 0 -18 -4 -14 -10z"/>
<path d="M2010 2342 c0 -4 18 -6 40 -4 22 2 40 6 40 8 0 2 -18 4 -40 4 -22 0
-40 -3 -40 -8z"/>
<path d="M2105 2340 c3 -5 12 -7 20 -3 21 7 19 13 -6 13 -11 0 -18 -4 -14 -10z"/>
<path d="M2170 2342 c0 -4 17 -6 38 -4 58 5 62 10 10 11 -27 1 -48 -3 -48 -7z"/>
<path d="M2270 2341 c0 -4 14 -7 32 -5 45 6 48 14 5 14 -20 0 -37 -4 -37 -9z"/>
<path d="M2370 2342 c0 -4 21 -6 48 -4 75 5 82 10 15 11 -35 0 -63 -2 -63 -7z"/>
<path d="M2500 2341 c0 -5 9 -7 20 -4 11 3 20 7 20 9 0 2 -9 4 -20 4 -11 0
-20 -4 -20 -9z"/>
<path d="M2555 1275 c0 -594 1 -836 2 -537 2 299 2 785 0 1080 -1 295 -2 51
-2 -543z"/>
<path d="M460 1283 l0 -643 88 0 c401 -2 1009 1 1026 5 12 3 35 7 51 9 72 8
159 53 222 113 30 29 51 53 46 53 -4 0 -3 4 3 8 44 29 68 160 50 269 -12 73
-88 168 -169 209 -46 24 -165 63 -171 56 -3 -3 -6 0 -6 7 0 7 -4 10 -8 7 -5
-3 -53 7 -108 21 -54 13 -108 27 -119 29 -55 11 -138 50 -160 76 -31 36 -40
87 -25 133 29 89 121 135 280 140 30 1 60 -1 65 -4 6 -3 19 -6 30 -7 33 -1
109 -39 138 -68 14 -14 36 -52 47 -85 l22 -59 82 0 83 0 -8 47 c-17 99 -30
128 -82 188 -82 94 -220 143 -396 143 -190 -1 -336 -74 -406 -202 -26 -47 -29
-63 -29 -143 0 -68 4 -99 19 -129 18 -37 87 -116 101 -116 4 0 15 -6 23 -13
26 -22 139 -63 226 -82 112 -24 229 -58 233 -67 2 -5 8 -6 12 -3 13 8 101 -39
126 -67 60 -66 45 -185 -32 -243 -60 -46 -127 -65 -234 -67 -89 -3 -203 33
-262 82 -45 37 -86 118 -90 177 -1 9 -25 12 -87 10 -69 -2 -85 -6 -82 -17 2
-8 4 -28 5 -45 4 -53 43 -149 77 -191 7 -8 -45 -11 -195 -11 l-205 0 0 391 c0
215 -1 466 -1 558 l0 167 -90 3 -90 3 0 -642z"/>
<path d="M550 209 c0 -7 216 -6 223 1 3 3 -46 5 -109 5 -63 0 -114 -3 -114 -6z"/>
<path d="M790 209 c0 -7 696 -6 703 1 3 3 -154 5 -349 5 -195 0 -354 -3 -354
-6z"/>
<path d="M1510 209 c0 -7 216 -6 223 1 3 3 -46 5 -109 5 -63 0 -114 -3 -114
-6z"/>
<path d="M1750 209 c0 -7 696 -6 703 1 3 3 -154 5 -349 5 -195 0 -354 -3 -354
-6z"/>
<path d="M2470 208 c0 -4 16 -7 35 -6 19 1 33 3 31 6 -8 8 -66 8 -66 0z"/>
</g>
</svg>
